<?xml version="1.0" encoding="UTF-8" standalone="no"?>
<!-- Created with Inkscape (http://www.inkscape.org/) -->

<svg
   xmlns:dc="http://purl.org/dc/elements/1.1/"
   xmlns:cc="http://creativecommons.org/ns#"
   xmlns:rdf="http://www.w3.org/1999/02/22-rdf-syntax-ns#"
   xmlns:svg="http://www.w3.org/2000/svg"
   xmlns="http://www.w3.org/2000/svg"
   xmlns:sodipodi="http://sodipodi.sourceforge.net/DTD/sodipodi-0.dtd"
   xmlns:inkscape="http://www.inkscape.org/namespaces/inkscape"
   width="250"
   height="250"
   viewBox="0 0 66.145833 66.145833"
   version="1.1"
   id="svg8"
   inkscape:version="0.92.0 r15299"
   sodipodi:docname="simon.svg">
  <sodipodi:namedview
     id="base"
     pagecolor="#ffffff"
     bordercolor="#666666"
     borderopacity="1.0"
     inkscape:pageopacity="0.0"
     inkscape:pageshadow="2"
     inkscape:zoom="3.056"
     inkscape:cx="184.69268"
     inkscape:cy="86.765954"
     inkscape:document-units="px"
     inkscape:current-layer="layer1"
     showgrid="true"
     objecttolerance="10000"
     guidetolerance="10000"
     inkscape:window-width="1920"
     inkscape:window-height="1001"
     inkscape:window-x="-9"
     inkscape:window-y="-9"
     inkscape:window-maximized="1"
     inkscape:snap-global="true"
     inkscape:snap-bbox="true"
     inkscape:object-paths="true"
     inkscape:snap-intersection-paths="true"
     inkscape:snap-smooth-nodes="true"
     inkscape:snap-midpoints="true"
     inkscape:snap-object-midpoints="false"
     inkscape:snap-center="true"
     inkscape:bbox-paths="true"
     inkscape:bbox-nodes="true"
     inkscape:snap-bbox-edge-midpoints="true"
     inkscape:snap-bbox-midpoints="true"
     units="px"
     inkscape:snap-others="true"
     inkscape:snap-nodes="false">
    <inkscape:grid
       type="xygrid"
       id="grid4485"
       spacingx="0.26458333"
       spacingy="0.26458333" />
  </sodipodi:namedview>
  <defs
     id="defs2" />
  <metadata
     id="metadata5">
    <rdf:RDF>
      <cc:Work
         rdf:about="">
        <dc:format>image/svg+xml</dc:format>
        <dc:type
           rdf:resource="http://purl.org/dc/dcmitype/StillImage" />
        <dc:title />
      </cc:Work>
    </rdf:RDF>
  </metadata>
  <g
     inkscape:label="Layer 1"
     inkscape:groupmode="layer"
     id="layer1"
     transform="translate(0,-230.85417)">
    <circle
       style="fill:#3c3c3c;fill-opacity:1;stroke:#37373c;stroke-width:0.22139621;stroke-miterlimit:4;stroke-dasharray:none;stroke-opacity:1"
       id="path5173"
       cx="32.193935"
       cy="264.07132"
       r="31.36446" />
    <circle
       style="fill:#a0a0a0;fill-opacity:1;stroke:#323232;stroke-width:0.17808859;stroke-miterlimit:4;stroke-dasharray:none;stroke-opacity:1"
       id="path5197"
       cx="32.007492"
       cy="264.23825"
       r="13.02364" />
    <path
       style="fill:#a0a0a0;fill-opacity:1;stroke:#3c3c3c;stroke-width:0.13229167;stroke-miterlimit:4;stroke-dasharray:none;stroke-opacity:1"
       d="m 20.221504,261.41277 a 12.163742,12.163742 0 0 0 -0.37052,2.91921 12.163742,12.163742 0 0 0 12.163599,12.1636 12.163742,12.163742 0 0 0 12.163599,-12.1636 12.163742,12.163742 0 0 0 -0.367937,-2.91921 z"
       id="path6767"
       inkscape:connector-curvature="0" />
    <circle
       style="fill:#00a000;fill-opacity:1;stroke:#000000;stroke-width:0.26419294;stroke-miterlimit:4;stroke-dasharray:none;stroke-opacity:1"
       id="strictButton"
       cx="39.6875"
       cy="265.25"
       r="2.5137334"
       onclick="" />
    <circle
       style="fill:#a00000;fill-opacity:1;stroke:#000000;stroke-width:0.26185966;stroke-miterlimit:4;stroke-dasharray:none;stroke-opacity:1"
       id="onOffButton"
       cx="24.077084"
       cy="265.25"
       r="2.5149"
       onclick="" />
    <rect
       style="fill:#32373c;fill-opacity:1;stroke:#000000;stroke-width:0.09828972;stroke-miterlimit:4;stroke-dasharray:none;stroke-opacity:1"
       id="scoreDisplay"
       width="11.198993"
       height="4.4573717"
       x="26.235586"
       y="269.79706"
       ry="0" />
    <text
       xml:space="preserve"
       style="font-style:normal;font-variant:normal;font-weight:normal;font-stretch:normal;font-size:10.58333302px;line-height:6.61458302px;font-family:'Segoe Script';-inkscape-font-specification:'Segoe Script';letter-spacing:0px;word-spacing:0px;fill:#000000;fill-opacity:1;stroke:none;stroke-width:0.26458332"
       x="104.51041"
       y="169.99998"
       id="text6128"><tspan
         sodipodi:role="line"
         id="tspan6126"
         x="104.51041"
         y="176.01074"
         style="stroke-width:0.26458332" /></text>
    <text
       xml:space="preserve"
       style="font-style:normal;font-variant:normal;font-weight:normal;font-stretch:normal;font-size:3.52777767px;line-height:6.61458302px;font-family:Arial;-inkscape-font-specification:'Arial, Normal';font-variant-ligatures:normal;font-variant-caps:normal;font-variant-numeric:normal;font-feature-settings:normal;text-align:start;letter-spacing:0px;word-spacing:0px;writing-mode:lr-tb;text-anchor:start;fill:#000000;fill-opacity:1;stroke:none;stroke-width:0.26458332"
       x="103.1875"
       y="171.32291"
       id="text6132"><tspan
         sodipodi:role="line"
         id="tspan6130"
         x="103.1875"
         y="175.603"
         style="stroke-width:0.26458332" /></text>
    <path
       style="fill:#3c3c3c;fill-opacity:1;stroke:#3c3c3c;stroke-width:0.13229167;stroke-miterlimit:4;stroke-dasharray:none;stroke-opacity:1"
       d="m 32.020124,252.12366 a 12.163742,12.163742 0 0 0 -11.481469,8.18761 H 43.50056 a 12.163742,12.163742 0 0 0 -11.480436,-8.18761 z"
       id="path6774"
       inkscape:connector-curvature="0" />
    <g
       aria-label="simon"
       style="font-style:normal;font-variant:normal;font-weight:normal;font-stretch:normal;font-size:21.83859634px;line-height:10.23684216px;font-family:Cambria;-inkscape-font-specification:'Cambria, Normal';font-variant-ligatures:normal;font-variant-caps:normal;font-variant-numeric:normal;font-feature-settings:normal;text-align:start;letter-spacing:0px;word-spacing:0px;writing-mode:lr-tb;text-anchor:start;fill:#ffffff;fill-opacity:1;stroke:#ffffff;stroke-width:1.35648394;stroke-miterlimit:4;stroke-dasharray:none;stroke-opacity:1"
       id="text6148"
       transform="matrix(0.30034371,0,0,0.29091964,-6.0456057,212.26668)">
      <path
         d="m 105.93475,155.02186 h -1.02369 q -0.23459,-0.6398 -0.55449,-1.00236 -0.31991,-0.37322 -0.72511,-0.5225 -0.40521,-0.14929 -0.9917,-0.14929 -0.85307,0 -1.36491,0.40521 -0.50118,0.39454 -0.50118,1.08766 0,0.49052 0.20261,0.81042 0.2026,0.3199 0.62913,0.59715 0.42654,0.27725 1.50354,0.73577 1.08767,0.46919 1.67415,0.86373 0.59715,0.39455 0.92772,0.91705 0.34122,0.52251 0.34122,1.24762 0,0.84241 -0.28791,1.41823 -0.28791,0.57582 -0.81041,0.93838 -0.52251,0.36255 -1.24762,0.5225 -0.71445,0.15995 -1.56752,0.15995 -0.89572,0 -1.73813,-0.13862 -0.842404,-0.12796 -1.642157,-0.34123 v -2.22865 h 1.045011 q 0.287916,0.98103 0.853066,1.4289 0.56516,0.4372 1.55686,0.4372 0.38388,0 0.74643,-0.0746 0.37322,-0.0853 0.66113,-0.26658 0.28791,-0.19194 0.45853,-0.51185 0.17061,-0.3199 0.17061,-0.79975 0,-0.54383 -0.21327,-0.88506 -0.21326,-0.34123 -0.66112,-0.61847 -0.44787,-0.28792 -1.57818,-0.76777 -0.97037,-0.40521 -1.55686,-0.78909 -0.586483,-0.38388 -0.927711,-0.90638 -0.330565,-0.52251 -0.330565,-1.23696 0,-0.87439 0.469189,-1.5142 0.479852,-0.65046 1.375577,-0.99169 0.89572,-0.34123 2.10068,-0.34123 0.70379,0 1.35425,0.0746 0.66113,0.064 1.65283,0.26658 z"
         style="fill:#ffffff;fill-opacity:1;stroke:#ffffff;stroke-width:1.35648394;stroke-miterlimit:4;stroke-dasharray:none;stroke-opacity:1"
         id="path6150"
         inkscape:connector-curvature="0" />
      <path
         style="fill:#3c3c3c;fill-opacity:1;stroke:#ffffff;stroke-width:0;stroke-miterlimit:4;stroke-dasharray:none;stroke-opacity:1"
         d="m 111.22378,148.50654 v 2.06869 h -1.96206 v -2.06869 z"
         id="path6163"
         inkscape:connector-curvature="0" />
      <path
         style="fill:#ffffff;fill-opacity:1;stroke:#ffffff;stroke-width:1.35648394;stroke-miterlimit:4;stroke-dasharray:none;stroke-opacity:1"
         d="m 108.17406,162.35826 q 0.41587,-0.12796 0.58648,-0.22393 0.18128,-0.096 0.29858,-0.26658 0.12796,-0.17062 0.19194,-0.52251 0.0746,-0.35189 0.0746,-1.09833 v -4.64923 q 0,-0.68245 -0.0213,-1.09833 -0.0213,-0.41587 -0.14928,-0.66113 -0.12796,-0.25592 -0.39455,-0.37321 -0.25592,-0.12796 -0.73577,-0.21327 v -0.56516 l 2.48456,-0.096 h 0.65047 v 7.62431 q 0,0.91705 0.0853,1.27961 0.0853,0.35189 0.3199,0.54383 0.24526,0.18128 0.78909,0.3199 v 0.52251 h -4.18004 z"
         id="path6152"
         inkscape:connector-curvature="0" />
      <path
         d="m 117.10996,154.32874 0.14929,0.0426 q 0.6398,-0.6398 1.04501,-0.9597 0.41587,-0.33057 0.79976,-0.52251 0.38388,-0.2026 0.71444,-0.28791 0.34123,-0.0853 0.69312,-0.0853 1.06634,0 1.73813,0.49051 0.6718,0.49052 0.92772,1.50354 0.79975,-0.81042 1.29027,-1.1943 0.50117,-0.38388 1.01302,-0.58649 0.5225,-0.21326 1.11965,-0.21326 0.71445,0 1.22629,0.21326 0.5225,0.20261 0.8744,0.63981 0.36255,0.42653 0.5225,1.077 0.17062,0.65046 0.17062,1.74879 v 4.02009 q 0,0.81042 0.0533,1.11966 0.0533,0.30924 0.14929,0.47985 0.10663,0.17061 0.30924,0.29857 0.2026,0.1173 0.68245,0.24526 v 0.52251 h -4.1907 v -0.52251 q 0.41587,-0.12796 0.59715,-0.22393 0.18127,-0.096 0.29857,-0.26658 0.12796,-0.17062 0.19194,-0.52251 0.0746,-0.36255 0.0746,-1.08766 v -2.79381 q 0,-0.90638 -0.0533,-1.49287 -0.0427,-0.59715 -0.14929,-0.94904 -0.096,-0.35189 -0.24526,-0.5545 -0.13862,-0.2026 -0.3199,-0.35189 -0.18128,-0.14929 -0.42653,-0.23459 -0.24526,-0.0853 -0.65047,-0.0853 -0.42653,0 -0.79975,0.17061 -0.36256,0.17062 -0.79976,0.57583 -0.42653,0.40521 -0.61847,0.82108 -0.19194,0.40521 -0.19194,0.9597 v 3.89213 q 0,0.81042 0.0533,1.11966 0.0533,0.30924 0.14929,0.47985 0.10663,0.17061 0.30924,0.29857 0.2026,0.1173 0.68246,0.24526 v 0.52251 h -4.19071 v -0.52251 q 0.41587,-0.12796 0.59715,-0.22393 0.18127,-0.096 0.29857,-0.26658 0.12796,-0.17062 0.19194,-0.52251 0.0746,-0.36255 0.0746,-1.08766 v -2.79381 q 0,-0.94904 -0.0533,-1.54619 -0.0533,-0.59715 -0.17061,-0.9597 -0.10664,-0.36256 -0.28792,-0.58649 -0.17061,-0.22393 -0.35189,-0.34123 -0.18127,-0.11729 -0.42653,-0.17061 -0.24526,-0.064 -0.5545,-0.064 -0.4372,0 -0.82108,0.2026 -0.38388,0.19195 -0.78909,0.56516 -0.39454,0.37322 -0.59715,0.77843 -0.2026,0.40521 -0.2026,0.8744 v 3.99876 q 0,0.60782 0.032,0.92772 0.032,0.3199 0.096,0.50118 0.0746,0.18127 0.18128,0.29857 0.10663,0.10663 0.29857,0.21327 0.20261,0.096 0.59715,0.2026 v 0.52251 h -4.18004 v -0.52251 q 0.4052,-0.12796 0.57582,-0.22393 0.18128,-0.096 0.30924,-0.26658 0.12796,-0.17062 0.19194,-0.52251 0.064,-0.35189 0.064,-1.09833 v -4.64923 q 0,-0.68245 -0.0213,-1.09833 -0.0213,-0.41587 -0.14929,-0.66113 -0.12796,-0.25592 -0.39454,-0.37321 -0.25592,-0.12796 -0.73577,-0.21327 v -0.56516 l 2.49523,-0.096 h 0.65046 z"
         style="fill:#ffffff;fill-opacity:1;stroke:#ffffff;stroke-width:1.35648394;stroke-miterlimit:4;stroke-dasharray:none;stroke-opacity:1"
         id="path6154"
         inkscape:connector-curvature="0" />
      <path
         d="m 137.03982,163.05138 q -2.21798,0 -3.39096,-1.30093 -1.1623,-1.3116 -1.1623,-3.87081 0,-1.75945 0.60781,-2.97508 0.61847,-1.21562 1.68481,-1.80211 1.06634,-0.59715 2.43125,-0.59715 2.28196,0 3.45494,1.33292 1.17297,1.32226 1.17297,3.80683 0,1.77012 -0.58649,2.98575 -0.58648,1.21562 -1.66348,1.82343 -1.07701,0.59715 -2.54855,0.59715 z m -2.53789,-5.39567 q 0,2.19666 0.69312,3.38029 0.70379,1.17298 2.00472,1.17298 0.71444,0 1.21562,-0.34123 0.50118,-0.35189 0.81042,-0.93838 0.3199,-0.58649 0.45853,-1.35425 0.13862,-0.77843 0.13862,-1.62083 0,-1.56752 -0.35189,-2.60187 -0.34123,-1.03434 -0.93838,-1.5142 -0.59715,-0.49051 -1.36491,-0.49051 -1.29027,0 -1.98339,1.11965 -0.68246,1.11966 -0.68246,3.18835 z"
         style="fill:#ffffff;fill-opacity:1;stroke:#ffffff;stroke-width:1.35648394;stroke-miterlimit:4;stroke-dasharray:none;stroke-opacity:1"
         id="path6156"
         inkscape:connector-curvature="0" />
      <path
         d="m 154.38913,162.88077 h -4.20137 v -0.52251 q 0.41587,-0.12796 0.59715,-0.22393 0.18128,-0.096 0.29857,-0.26658 0.12797,-0.17062 0.19195,-0.52251 0.0746,-0.36255 0.0746,-1.08766 v -2.79381 q 0,-0.74643 -0.0426,-1.35425 -0.0427,-0.60781 -0.14929,-0.99169 -0.096,-0.39455 -0.24526,-0.60781 -0.13862,-0.22393 -0.34123,-0.37322 -0.19194,-0.15995 -0.44786,-0.24526 -0.25592,-0.096 -0.67179,-0.096 -0.41587,0 -0.78909,0.17061 -0.37322,0.15996 -0.82108,0.56516 -0.44786,0.40521 -0.65047,0.79976 -0.2026,0.39454 -0.2026,0.90638 v 3.97744 q 0,0.91705 0.0853,1.27961 0.0853,0.35189 0.31991,0.54383 0.24525,0.18128 0.78909,0.3199 v 0.52251 H 144.003 v -0.52251 q 0.41587,-0.12796 0.58649,-0.22393 0.18128,-0.096 0.29857,-0.26658 0.12796,-0.17062 0.19194,-0.52251 0.0746,-0.35189 0.0746,-1.09833 v -4.64923 q 0,-0.68245 -0.0213,-1.09833 -0.0213,-0.41587 -0.14929,-0.66113 -0.12796,-0.25592 -0.39454,-0.37321 -0.25592,-0.12796 -0.73578,-0.21327 v -0.56516 l 2.49524,-0.096 h 0.65046 l -0.1173,1.73813 0.14929,0.0426 q 0.78909,-0.79975 1.26894,-1.14098 0.49052,-0.34123 0.98103,-0.5225 0.50118,-0.19194 1.05568,-0.19194 0.57582,0 1.02368,0.13862 0.45853,0.12796 0.79976,0.40521 0.35189,0.27725 0.57582,0.69312 0.22393,0.40521 0.33056,0.98103 0.1173,0.57582 0.1173,1.46088 v 4.02009 q 0,0.73578 0.0427,1.06634 0.0427,0.33057 0.14929,0.51184 0.10663,0.18128 0.30924,0.30924 0.2026,0.1173 0.70378,0.25592 z"
         style="fill:#ffffff;fill-opacity:1;stroke:#ffffff;stroke-width:1.35648394;stroke-miterlimit:4;stroke-dasharray:none;stroke-opacity:1"
         id="path6158"
         inkscape:connector-curvature="0" />
    </g>
    <path
       style="fill:#00e1ff;fill-opacity:1;stroke:#3c3c3c;stroke-width:0.52916664;stroke-miterlimit:4;stroke-dasharray:none;stroke-opacity:1"
       d="m 61.305332,265.39153 c -0.61794,15.16309 -12.73028,27.33485 -27.89016,28.02699 l 0.0142,-15.17437 c 6.78054,-0.65091 12.12772,-6.05357 12.70861,-12.84047 z"
       id="colorButton1"
       inkscape:connector-curvature="0"
       sodipodi:nodetypes="ccccc"
       onclick="" />
    <path
       style="fill:#f5f500;fill-opacity:1;stroke:#3c3c3c;stroke-width:0.52916664;stroke-miterlimit:4;stroke-dasharray:none;stroke-opacity:1"
       d="M 30.733724,278.24422 C 23.953161,277.59363 18.605732,272.19126 18.024496,265.4044 L 2.8570708,265.392 c 0.618138,15.16205 12.7291352,27.33319 27.8879412,28.02643 z"
       id="colorButton2"
       inkscape:connector-curvature="0"
       sodipodi:nodetypes="ccccc"
       onclick=""
       inkscape:label="#colorButton2" />
    <path
       style="fill:#00e100;fill-opacity:1;stroke:#3c3c3c;stroke-width:0.52916664;stroke-miterlimit:4;stroke-dasharray:none;stroke-opacity:1"
       d="m 18.052368,262.70656 c 0.70963,-6.66351 6.008752,-11.9084 12.679206,-12.54945 l 0.01303,-15.17439 C 15.696318,235.67111 3.6320848,247.67658 2.8702248,262.72133 Z"
       id="colorButton3"
       inkscape:connector-curvature="0"
       sodipodi:nodetypes="ccccc"
       onclick="" />
    <path
       style="fill:#ff0000;fill-opacity:1;stroke:#3c3c3c;stroke-width:0.52916664;stroke-miterlimit:4;stroke-dasharray:none;stroke-opacity:1"
       d="m 46.110072,262.70709 c -0.70944,-6.66411 -6.00919,-11.90945 -12.68026,-12.55008 l -0.0171,-15.17453 c 15.04972,0.68582 27.11661,12.69115 27.8794,27.73717 z"
       id="colorButton0"
       inkscape:connector-curvature="0"
       sodipodi:nodetypes="ccccc"
       onclick="" />
    <text
       xml:space="preserve"
       style="font-style:normal;font-variant:normal;font-weight:normal;font-stretch:normal;font-size:4.23333311px;line-height:6.61458302px;font-family:Cambria;-inkscape-font-specification:'Cambria, Normal';font-variant-ligatures:normal;font-variant-caps:normal;font-variant-numeric:normal;font-feature-settings:normal;text-align:start;letter-spacing:0px;word-spacing:0px;writing-mode:lr-tb;text-anchor:start;fill:#000000;fill-opacity:1;stroke:none;stroke-width:0.26458332"
       id="text6713"
       x="-9.1665281"
       y="42.79673"><tspan
         id="tspan6711"
         style="stroke-width:0.26458332">Hello</tspan></text>
    <path
       style="fill:#3c3c3c;fill-opacity:1;stroke:#3c3c3c;stroke-width:0.27134946;stroke-miterlimit:4;stroke-dasharray:none;stroke-opacity:1"
       id="path6745"
       transform="scale(1,-1)"
       sodipodi:type="arc"
       sodipodi:cx="32.193935"
       sodipodi:cy="-264.07132"
       sodipodi:rx="31.339483"
       sodipodi:ry="31.339483"
       sodipodi:start="4.54517"
       sodipodi:end="4.9569673"
       sodipodi:open="true"
       d="m 26.977768,-294.97366 a 31.339483,31.339483 0 0 1 12.804936,0.49554" />
    <g
       aria-label="© curt hill 2017"
       transform="translate(0.29266545,-0.31685841)"
       style="font-style:normal;font-variant:normal;font-weight:normal;font-stretch:normal;font-size:2.11666656px;line-height:6.61458302px;font-family:Arial;-inkscape-font-specification:Arial;font-variant-ligatures:normal;font-variant-caps:normal;font-variant-numeric:normal;font-feature-settings:normal;text-align:start;letter-spacing:0px;word-spacing:0px;writing-mode:lr-tb;text-anchor:start;fill:#787878;fill-opacity:1;stroke:#787878;stroke-width:0;stroke-miterlimit:4;stroke-dasharray:none;stroke-opacity:1"
       id="text6749">
      <path
         d="m 27.647663,294.04062 q 0.129431,0.0197 0.242598,0.10512 0.11327,0.0848 0.163253,0.21922 0.05009,0.13375 0.02972,0.26795 -0.02016,0.13283 -0.106898,0.24511 -0.08605,0.11238 -0.219012,0.16189 -0.132174,0.0489 -0.265693,0.0287 -0.133518,-0.0203 -0.2459,-0.10632 -0.111597,-0.0866 -0.161106,-0.21959 -0.04951,-0.13296 -0.02934,-0.2658 0.02037,-0.1342 0.107889,-0.24705 0.0883,-0.11344 0.221633,-0.1608 0.133434,-0.048 0.262865,-0.0284 z m -0.01293,0.0851 q -0.108314,-0.0164 -0.219656,0.0238 -0.110558,0.0397 -0.184179,0.13442 -0.07352,0.0941 -0.09048,0.2058 -0.01685,0.11103 0.02417,0.2218 0.04181,0.11019 0.135312,0.18292 0.0936,0.072 0.204638,0.0889 0.111038,0.0168 0.221803,-0.0242 0.110868,-0.0417 0.182816,-0.13463 0.07205,-0.0936 0.08891,-0.20464 0.01696,-0.11172 -0.02533,-0.22337 -0.0415,-0.11223 -0.135993,-0.18302 -0.09438,-0.0715 -0.202016,-0.0878 z m 0.0871,0.5373 0.08007,0.0372 q -0.03336,0.082 -0.107877,0.12301 -0.07373,0.0404 -0.168418,0.026 -0.119894,-0.0182 -0.18304,-0.10723 -0.06315,-0.089 -0.04226,-0.22664 0.01365,-0.0899 0.05774,-0.15083 0.04419,-0.0616 0.111933,-0.0854 0.06852,-0.0245 0.149588,-0.0121 0.0906,0.0138 0.14393,0.0664 0.05343,0.052 0.06396,0.12957 l -0.08406,0.007 q -0.01279,-0.0535 -0.04894,-0.0862 -0.03537,-0.0332 -0.08919,-0.0414 -0.07834,-0.0119 -0.13791,0.0362 -0.05889,0.0482 -0.07471,0.15244 -0.01582,0.10422 0.0237,0.16528 0.0403,0.0605 0.116597,0.072 0.06131,0.009 0.113009,-0.0191 0.0517,-0.0284 0.07589,-0.0867 z"
         style="font-size:1.41111112px;fill:#787878;fill-opacity:1;stroke:#787878;stroke-width:0;stroke-miterlimit:4;stroke-dasharray:none;stroke-opacity:1"
         id="path4649" />
      <path
         d="m 28.98952,294.97787 0.11947,0.0292 q -0.03374,0.12312 -0.123811,0.18524 -0.08931,0.0615 -0.208469,0.0483 -0.149293,-0.0165 -0.229604,-0.12387 -0.07955,-0.10794 -0.05937,-0.29011 0.01305,-0.11779 0.06187,-0.20181 0.04882,-0.084 0.133116,-0.11905 0.08506,-0.0356 0.178878,-0.0252 0.118476,0.0131 0.187131,0.0817 0.06873,0.0679 0.07775,0.18053 l -0.121893,0.005 q -0.009,-0.0752 -0.04874,-0.11701 -0.03905,-0.0418 -0.100682,-0.0486 -0.09314,-0.0103 -0.158782,0.0503 -0.06557,0.06 -0.08158,0.20448 -0.01623,0.14655 0.03256,0.2192 0.0488,0.0727 0.139195,0.0827 0.07259,0.008 0.126146,-0.0311 0.05355,-0.0391 0.07681,-0.13014 z"
         style="font-size:1.41111112px;fill:#787878;fill-opacity:1;stroke:#787878;stroke-width:0;stroke-miterlimit:4;stroke-dasharray:none;stroke-opacity:1"
         id="path4651" />
      <path
         d="m 29.664656,295.3091 0.0093,-0.10709 q -0.09584,0.11618 -0.242049,0.10349 -0.06453,-0.006 -0.11867,-0.0352 -0.05346,-0.0295 -0.0777,-0.069 -0.0235,-0.0401 -0.02978,-0.0953 -0.0044,-0.037 0.0025,-0.11598 l 0.03918,-0.45168 0.123559,0.0107 -0.03507,0.40432 q -0.0084,0.0968 -0.0038,0.13107 0.0074,0.0498 0.04275,0.0812 0.03537,0.0307 0.09097,0.0356 0.0556,0.005 0.106781,-0.0191 0.05124,-0.0246 0.07537,-0.0716 0.02488,-0.0476 0.03298,-0.14099 l 0.03388,-0.39059 0.12356,0.0107 -0.06324,0.729 z"
         style="font-size:1.41111112px;fill:#787878;fill-opacity:1;stroke:#787878;stroke-width:0;stroke-miterlimit:4;stroke-dasharray:none;stroke-opacity:1"
         id="path4653" />
      <path
         d="m 29.968344,295.33202 0.04861,-0.73013 0.111374,0.007 -0.0074,0.11069 q 0.0478,-0.0749 0.0852,-0.0972 0.03808,-0.0223 0.0814,-0.0194 0.06256,0.004 0.124533,0.0483 l -0.05027,0.11197 q -0.04359,-0.0298 -0.08897,-0.0328 -0.04056,-0.003 -0.07452,0.0199 -0.03392,0.0219 -0.05055,0.0643 -0.02502,0.0646 -0.03024,0.14301 l -0.02545,0.38224 z"
         style="font-size:1.41111112px;fill:#787878;fill-opacity:1;stroke:#787878;stroke-width:0;stroke-miterlimit:4;stroke-dasharray:none;stroke-opacity:1"
         id="path4655" />
      <path
         d="m 30.716317,295.26536 0.01212,0.11034 q -0.05287,0.008 -0.09416,0.006 -0.06743,-0.004 -0.10346,-0.0269 -0.03603,-0.0233 -0.04935,-0.0585 -0.01329,-0.0359 -0.0074,-0.14735 l 0.02218,-0.42041 -0.09082,-0.005 0.0051,-0.0963 0.09082,0.005 0.0095,-0.18096 0.127085,-0.0678 -0.01347,0.25527 0.124539,0.007 -0.0051,0.0963 -0.124539,-0.007 -0.02255,0.42729 q -0.0028,0.053 0.0026,0.0684 0.0061,0.0155 0.02006,0.0252 0.01467,0.01 0.04219,0.0112 0.02064,0.001 0.05461,-0.002 z"
         style="font-size:1.41111112px;fill:#787878;fill-opacity:1;stroke:#787878;stroke-width:0;stroke-miterlimit:4;stroke-dasharray:none;stroke-opacity:1"
         id="path4657" />
      <path
         d="m 31.222011,295.39717 0.02167,-1.00987 0.123995,0.003 -0.0078,0.36234 q 0.08895,-0.0987 0.221215,-0.0959 0.08129,0.002 0.140522,0.0354 0.05925,0.033 0.08353,0.09 0.02496,0.0571 0.02266,0.16451 l -0.0099,0.4636 -0.123995,-0.003 0.0099,-0.4636 q 0.002,-0.093 -0.03775,-0.13589 -0.03904,-0.0436 -0.112745,-0.0451 -0.05511,-0.001 -0.104639,0.0267 -0.04883,0.0272 -0.07054,0.0757 -0.02172,0.0485 -0.02356,0.13457 l -0.0086,0.40023 z"
         style="font-size:1.41111112px;fill:#787878;fill-opacity:1;stroke:#787878;stroke-width:0;stroke-miterlimit:4;stroke-dasharray:none;stroke-opacity:1"
         id="path4659" />
      <path
         d="m 32.011455,294.54284 5.58e-4,-0.14263 0.124022,4.9e-4 -5.57e-4,0.14262 z m -0.0034,0.86747 0.0029,-0.73173 0.124023,4.8e-4 -0.0029,0.73173 z"
         style="font-size:1.41111112px;fill:#787878;fill-opacity:1;stroke:#787878;stroke-width:0;stroke-miterlimit:4;stroke-dasharray:none;stroke-opacity:1"
         id="path4661" />
      <path
         d="m 32.318814,295.41061 -0.0062,-1.01008 0.124021,-7.6e-4 0.0062,1.01008 z"
         style="font-size:1.41111112px;fill:#787878;fill-opacity:1;stroke:#787878;stroke-width:0;stroke-miterlimit:4;stroke-dasharray:none;stroke-opacity:1"
         id="path4663" />
      <path
         d="m 32.632993,295.40778 -0.0163,-1.00997 0.124007,-0.002 0.01631,1.00997 z"
         style="font-size:1.41111112px;fill:#787878;fill-opacity:1;stroke:#787878;stroke-width:0;stroke-miterlimit:4;stroke-dasharray:none;stroke-opacity:1"
         id="path4665" />
      <path
         d="m 33.952326,295.24367 0.0055,0.11908 -0.666948,0.0308 q -0.0034,-0.0447 0.01048,-0.0867 0.02232,-0.0693 0.07502,-0.13797 0.05339,-0.0687 0.155375,-0.1603 0.158266,-0.14251 0.212456,-0.22364 0.05416,-0.0818 0.05092,-0.15203 -0.0034,-0.0736 -0.05872,-0.12144 -0.05466,-0.0485 -0.139322,-0.0446 -0.08948,0.004 -0.140683,0.0603 -0.0512,0.0562 -0.0475,0.15119 l -0.127937,-0.007 q 0.0065,-0.14308 0.08841,-0.22135 0.08188,-0.079 0.225732,-0.0856 0.145228,-0.007 0.233608,0.0699 0.08838,0.0766 0.09388,0.19569 0.0028,0.0606 -0.01928,0.12022 -0.02207,0.0597 -0.0769,0.12702 -0.05414,0.0673 -0.182449,0.18638 -0.107177,0.0988 -0.13728,0.13395 -0.03013,0.0345 -0.04922,0.0692 z"
         style="font-size:1.41111112px;fill:#787878;fill-opacity:1;stroke:#787878;stroke-width:0;stroke-miterlimit:4;stroke-dasharray:none;stroke-opacity:1"
         id="path4667" />
      <path
         d="m 34.055854,294.85819 q -0.01275,-0.17869 0.01593,-0.28988 0.02931,-0.11193 0.09726,-0.17618 0.06863,-0.0643 0.178597,-0.0722 0.0811,-0.006 0.144619,0.0228 0.06347,0.0279 0.107748,0.0869 0.04423,0.0583 0.07323,0.14536 0.02896,0.0864 0.03965,0.23618 0.01265,0.17732 -0.01597,0.28919 -0.02868,0.11119 -0.09726,0.17618 -0.06795,0.0643 -0.178597,0.0721 -0.145701,0.0104 -0.236316,-0.0881 -0.108629,-0.11866 -0.128884,-0.4025 z m 0.127145,-0.009 q 0.0177,0.24811 0.08132,0.32646 0.06425,0.0776 0.149476,0.0715 0.08522,-0.006 0.137067,-0.0927 0.05253,-0.0866 0.03488,-0.33406 -0.01775,-0.24879 -0.08201,-0.3264 -0.06357,-0.0777 -0.150163,-0.0715 -0.08522,0.006 -0.130931,0.0819 -0.05734,0.0967 -0.03964,0.34476 z"
         style="font-size:1.41111112px;fill:#787878;fill-opacity:1;stroke:#787878;stroke-width:0;stroke-miterlimit:4;stroke-dasharray:none;stroke-opacity:1"
         id="path4669" />
      <path
         d="m 35.339711,295.2528 -0.123449,0.0119 -0.07599,-0.78664 q -0.04047,0.0468 -0.109061,0.0964 -0.0679,0.0495 -0.12346,0.0763 l -0.01153,-0.11933 q 0.09886,-0.0587 0.169663,-0.13545 0.07081,-0.0768 0.09675,-0.14503 l 0.07956,-0.008 z"
         style="font-size:1.41111112px;fill:#787878;fill-opacity:1;stroke:#787878;stroke-width:0;stroke-miterlimit:4;stroke-dasharray:none;stroke-opacity:1"
         id="path4671" />
      <path
         d="m 35.558377,294.34837 -0.01443,-0.11832 0.649069,-0.0792 0.01168,0.0958 q -0.08332,0.11359 -0.157105,0.29404 -0.0731,0.18036 -0.102621,0.36513 -0.02159,0.13035 -0.01358,0.28139 l -0.126531,0.0154 q -0.01238,-0.11857 0.01164,-0.29156 0.02402,-0.17299 0.08784,-0.33834 0.06442,-0.16612 0.145111,-0.28425 z"
         style="font-size:1.41111112px;fill:#787878;fill-opacity:1;stroke:#787878;stroke-width:0;stroke-miterlimit:4;stroke-dasharray:none;stroke-opacity:1"
         id="path4673" />
    </g>
    <text
       xml:space="preserve"
       style="font-style:normal;font-variant:normal;font-weight:normal;font-stretch:normal;font-size:1.4111111px;line-height:6.61458302px;font-family:Arial;-inkscape-font-specification:Arial;letter-spacing:0px;word-spacing:0px;fill:#000000;fill-opacity:1;stroke:none;stroke-width:0.26458332;"
       x="31.427929"
       y="267.97461"
       id="text4563"><tspan
         sodipodi:role="line"
         id="tspan4561"
         x="31.427929"
         y="272.06015"
         style="stroke-width:0.26458332;font-size:1.4111111px;" /></text>
    <ellipse
       style="fill:#0000a0;fill-opacity:1;stroke:#000000;stroke-width:0.25468382;stroke-miterlimit:4;stroke-dasharray:none;stroke-opacity:1"
       id="restartButton"
       cx="20.545826"
       cy="266.38388"
       rx="2.5026677"
       ry="2.5184884"
       transform="rotate(-2.4716615)" />
    <text
       xml:space="preserve"
       style="font-style:normal;font-variant:normal;font-weight:normal;font-stretch:normal;font-size:1.41111112px;line-height:6.61458302px;font-family:Arial;-inkscape-font-specification:Arial;letter-spacing:0px;word-spacing:0px;fill:#000000;fill-opacity:1;stroke:none;stroke-width:0.26458332"
       x="22.553652"
       y="268.73218"
       id="text4594"><tspan
         sodipodi:role="line"
         id="tspan4592"
         x="22.553652"
         y="272.42859"
         style="stroke-width:0.26458332" /></text>
    <g
       aria-label="ON/OFF"
       style="font-style:normal;font-variant:normal;font-weight:normal;font-stretch:normal;font-size:1.41111112px;line-height:6.61458302px;font-family:Arial;-inkscape-font-specification:Arial;letter-spacing:0px;word-spacing:0px;fill:#000000;fill-opacity:1;stroke:none;stroke-width:0.26458332"
       id="text4598">
      <path
         d="m 21.431246,268.70302 q 0,-0.25149 0.135048,-0.39343 0.135048,-0.14263 0.348644,-0.14263 0.13987,0 0.252181,0.0668 0.11231,0.0668 0.170876,0.18672 0.05926,0.1192 0.05926,0.27078 0,0.15366 -0.06201,0.27492 -0.06201,0.12127 -0.1757,0.18397 -0.113688,0.062 -0.24529,0.062 -0.142627,0 -0.254937,-0.0689 -0.112311,-0.0689 -0.170188,-0.1881 -0.05788,-0.1192 -0.05788,-0.25218 z m 0.137804,0.002 q 0,0.18259 0.09784,0.28801 0.09853,0.10474 0.246669,0.10474 0.150895,0 0.248046,-0.10611 0.09784,-0.10611 0.09784,-0.30111 0,-0.12333 -0.04203,-0.21497 -0.04134,-0.0923 -0.121956,-0.14263 -0.07993,-0.051 -0.179834,-0.051 -0.141938,0 -0.244602,0.0978 -0.101975,0.0971 -0.101975,0.32521 z"
         style="stroke-width:0.26458332"
         id="path4608" />
      <path
         d="m 22.567439,269.19498 v -1.01011 h 0.137115 l 0.530544,0.79307 v -0.79307 h 0.128158 v 1.01011 h -0.137115 l -0.530545,-0.79375 v 0.79375 z"
         style="stroke-width:0.26458332"
         id="path4610" />
      <path
         d="m 23.4797,269.2122 0.292833,-1.04455 h 0.09922 l -0.292144,1.04455 z"
         style="stroke-width:0.26458332"
         id="path4612" />
      <path
         d="m 23.939276,268.70302 q 0,-0.25149 0.135047,-0.39343 0.135048,-0.14263 0.348644,-0.14263 0.139871,0 0.252181,0.0668 0.11231,0.0668 0.170877,0.18672 0.05926,0.1192 0.05926,0.27078 0,0.15366 -0.06201,0.27492 -0.06201,0.12127 -0.1757,0.18397 -0.113688,0.062 -0.245291,0.062 -0.142627,0 -0.254937,-0.0689 -0.11231,-0.0689 -0.170188,-0.1881 -0.05788,-0.1192 -0.05788,-0.25218 z m 0.137803,0.002 q 0,0.18259 0.09784,0.28801 0.09853,0.10474 0.246669,0.10474 0.150895,0 0.248047,-0.10611 0.09784,-0.10611 0.09784,-0.30111 0,-0.12333 -0.04203,-0.21497 -0.04134,-0.0923 -0.121956,-0.14263 -0.07993,-0.051 -0.179834,-0.051 -0.141938,0 -0.244602,0.0978 -0.101975,0.0971 -0.101975,0.32521 z"
         style="stroke-width:0.26458332"
         id="path4614" />
      <path
         d="m 25.083737,269.19498 v -1.01011 h 0.681439 v 0.11921 h -0.54777 v 0.31281 h 0.474045 v 0.1192 h -0.474045 v 0.45889 z"
         style="stroke-width:0.26458332"
         id="path4616" />
      <path
         d="m 25.946388,269.19498 v -1.01011 h 0.68144 v 0.11921 h -0.54777 v 0.31281 h 0.474045 v 0.1192 h -0.474045 v 0.45889 z"
         style="stroke-width:0.26458332"
         id="path4618" />
    </g>
    <g
       aria-label="RESTART"
       style="font-style:normal;font-variant:normal;font-weight:normal;font-stretch:normal;font-size:1.41111112px;line-height:6.61458302px;font-family:Arial;-inkscape-font-specification:Arial;letter-spacing:0px;word-spacing:0px;fill:#000000;fill-opacity:1;stroke:none;stroke-width:0.26458332"
       id="text4602">
      <path
         d="m 28.850262,269.19464 v -1.0101 h 0.447863 q 0.135048,0 0.205327,0.0276 0.07028,0.0269 0.112311,0.0958 0.04203,0.0689 0.04203,0.15228 0,0.10748 -0.06959,0.18121 -0.06959,0.0737 -0.214974,0.0937 0.05305,0.0255 0.08061,0.0503 0.05857,0.0537 0.110932,0.13436 l 0.1757,0.27492 h -0.168121 l -0.133669,-0.21015 q -0.05857,-0.091 -0.09646,-0.13918 -0.0379,-0.0482 -0.06821,-0.0675 -0.02963,-0.0193 -0.06063,-0.0269 -0.02274,-0.005 -0.07441,-0.005 h -0.155029 v 0.44855 z m 0.13367,-0.56431 h 0.287321 q 0.09164,0 0.143316,-0.0186 0.05168,-0.0193 0.07855,-0.0606 0.02687,-0.042 0.02687,-0.091 0,-0.0717 -0.05237,-0.11783 -0.05168,-0.0462 -0.163986,-0.0462 h -0.319705 z"
         style="stroke-width:0.26458332"
         id="path4621" />
      <path
         d="m 29.8707,269.19464 v -1.0101 h 0.73036 v 0.1192 h -0.596691 v 0.30937 h 0.558795 v 0.11851 h -0.558795 v 0.34382 h 0.620117 v 0.1192 z"
         style="stroke-width:0.26458332"
         id="path4623" />
      <path
         d="m 30.765046,268.87011 0.126091,-0.011 q 0.009,0.0758 0.04134,0.12471 0.03307,0.0482 0.101975,0.0786 0.0689,0.0296 0.155029,0.0296 0.07648,0 0.135048,-0.0227 0.05857,-0.0227 0.08682,-0.062 0.02894,-0.04 0.02894,-0.0868 0,-0.0475 -0.02756,-0.0827 -0.02756,-0.0358 -0.09095,-0.06 -0.04065,-0.0158 -0.179834,-0.0489 -0.139182,-0.0338 -0.194993,-0.0634 -0.07235,-0.0379 -0.108176,-0.0937 -0.03514,-0.0565 -0.03514,-0.12609 0,-0.0765 0.04341,-0.14263 0.04341,-0.0668 0.126779,-0.10129 0.08337,-0.0344 0.185346,-0.0344 0.11231,0 0.197749,0.0365 0.08613,0.0358 0.132291,0.10611 0.04617,0.0703 0.04961,0.15916 l -0.128158,0.01 q -0.01034,-0.0958 -0.07028,-0.14469 -0.05926,-0.0489 -0.1757,-0.0489 -0.121267,0 -0.177077,0.0448 -0.05512,0.0441 -0.05512,0.1068 0,0.0544 0.03927,0.0896 0.03859,0.0351 0.201194,0.0723 0.163297,0.0365 0.223931,0.0641 0.08819,0.0407 0.130224,0.10335 0.04203,0.062 0.04203,0.14332 0,0.0806 -0.04616,0.15227 -0.04616,0.071 -0.13298,0.11093 -0.08613,0.0393 -0.194304,0.0393 -0.137115,0 -0.230132,-0.04 -0.09233,-0.04 -0.145383,-0.11989 -0.05237,-0.0806 -0.05512,-0.1819 z"
         style="stroke-width:0.26458332"
         id="path4625" />
      <path
         d="m 32.010104,269.19464 v -0.8909 h -0.332796 v -0.1192 h 0.80064 v 0.1192 h -0.334174 v 0.8909 z"
         style="stroke-width:0.26458332"
         id="path4627" />
      <path
         d="m 32.405601,269.19464 0.387918,-1.0101 h 0.144005 l 0.413411,1.0101 h -0.152273 l -0.117822,-0.30592 h -0.422369 l -0.110932,0.30592 z m 0.291455,-0.41479 h 0.342442 l -0.10542,-0.27974 q -0.04823,-0.12747 -0.07166,-0.20946 -0.01929,0.0971 -0.05443,0.19292 z"
         style="stroke-width:0.26458332"
         id="path4629" />
      <path
         d="m 33.461178,269.19464 v -1.0101 h 0.447862 q 0.135048,0 0.205328,0.0276 0.07028,0.0269 0.11231,0.0958 0.04203,0.0689 0.04203,0.15228 0,0.10748 -0.06959,0.18121 -0.06959,0.0737 -0.214973,0.0937 0.05305,0.0255 0.08062,0.0503 0.05857,0.0537 0.110932,0.13436 l 0.1757,0.27492 H 34.18327 l -0.13367,-0.21015 q -0.05857,-0.091 -0.09646,-0.13918 -0.0379,-0.0482 -0.06821,-0.0675 -0.02963,-0.0193 -0.06063,-0.0269 -0.02274,-0.005 -0.07441,-0.005 h -0.155029 v 0.44855 z m 0.13367,-0.56431 h 0.287321 q 0.09164,0 0.143316,-0.0186 0.05168,-0.0193 0.07855,-0.0606 0.02687,-0.042 0.02687,-0.091 0,-0.0717 -0.05237,-0.11783 -0.05168,-0.0462 -0.163986,-0.0462 h -0.319705 z"
         style="stroke-width:0.26458332"
         id="path4631" />
      <path
         d="m 34.711059,269.19464 v -0.8909 h -0.332797 v -0.1192 h 0.800641 v 0.1192 h -0.334175 v 0.8909 z"
         style="stroke-width:0.26458332"
         id="path4633" />
    </g>
    <g
       aria-label="STRICT"
       style="font-style:normal;font-variant:normal;font-weight:normal;font-stretch:normal;font-size:1.41111112px;line-height:6.61458302px;font-family:Arial;-inkscape-font-specification:Arial;letter-spacing:0px;word-spacing:0px;fill:#000000;fill-opacity:1;stroke:none;stroke-width:0.26458332"
       id="text4606">
      <path
         d="m 37.181539,268.87011 0.12609,-0.011 q 0.009,0.0758 0.04134,0.12471 0.03307,0.0482 0.101975,0.0786 0.0689,0.0296 0.155029,0.0296 0.07648,0 0.135048,-0.0227 0.05857,-0.0227 0.08682,-0.062 0.02894,-0.04 0.02894,-0.0868 0,-0.0475 -0.02756,-0.0827 -0.02756,-0.0358 -0.09095,-0.06 -0.04065,-0.0158 -0.179834,-0.0489 -0.139182,-0.0338 -0.194992,-0.0634 -0.07235,-0.0379 -0.108176,-0.0937 -0.03514,-0.0565 -0.03514,-0.12609 0,-0.0765 0.04341,-0.14263 0.04341,-0.0668 0.126779,-0.10129 0.08337,-0.0344 0.185346,-0.0344 0.112311,0 0.197749,0.0365 0.08613,0.0358 0.132292,0.10611 0.04616,0.0703 0.04961,0.15916 l -0.128158,0.01 q -0.01033,-0.0958 -0.07028,-0.14469 -0.05926,-0.0489 -0.1757,-0.0489 -0.121268,0 -0.177078,0.0448 -0.05512,0.0441 -0.05512,0.1068 0,0.0544 0.03927,0.0896 0.03858,0.0351 0.201194,0.0723 0.163297,0.0365 0.223931,0.0641 0.08819,0.0407 0.130225,0.10335 0.04203,0.062 0.04203,0.14332 0,0.0806 -0.04616,0.15227 -0.04616,0.071 -0.132981,0.11093 -0.08613,0.0393 -0.194304,0.0393 -0.137114,0 -0.230132,-0.04 -0.09233,-0.04 -0.145383,-0.11989 -0.05237,-0.0806 -0.05512,-0.1819 z"
         style="stroke-width:0.26458332"
         id="path4636" />
      <path
         d="m 38.426596,269.19464 v -0.8909 H 38.0938 v -0.1192 h 0.80064 v 0.1192 h -0.334174 v 0.8909 z"
         style="stroke-width:0.26458332"
         id="path4638" />
      <path
         d="m 39.039823,269.19464 v -1.0101 h 0.447862 q 0.135048,0 0.205328,0.0276 0.07028,0.0269 0.11231,0.0958 0.04203,0.0689 0.04203,0.15228 0,0.10748 -0.06959,0.18121 -0.06959,0.0737 -0.214973,0.0937 0.05305,0.0255 0.08061,0.0503 0.05857,0.0537 0.110932,0.13436 l 0.1757,0.27492 h -0.168121 l -0.13367,-0.21015 q -0.05857,-0.091 -0.09646,-0.13918 -0.0379,-0.0482 -0.06821,-0.0675 -0.02963,-0.0193 -0.06063,-0.0269 -0.02274,-0.005 -0.07441,-0.005 h -0.155029 v 0.44855 z m 0.13367,-0.56431 h 0.287321 q 0.09164,0 0.143316,-0.0186 0.05168,-0.0193 0.07855,-0.0606 0.02687,-0.042 0.02687,-0.091 0,-0.0717 -0.05237,-0.11783 -0.05168,-0.0462 -0.163986,-0.0462 h -0.319705 z"
         style="stroke-width:0.26458332"
         id="path4640" />
      <path
         d="m 40.080242,269.19464 v -1.0101 h 0.13367 v 1.0101 z"
         style="stroke-width:0.26458332"
         id="path4642" />
      <path
         d="m 41.169581,268.84049 0.13367,0.0338 q -0.04203,0.16467 -0.151584,0.25149 -0.108865,0.0861 -0.266651,0.0861 -0.163297,0 -0.265961,-0.0661 -0.101975,-0.0668 -0.155719,-0.19292 -0.05305,-0.1261 -0.05305,-0.27079 0,-0.15778 0.05994,-0.27492 0.06063,-0.11782 0.171565,-0.17845 0.111622,-0.0613 0.245291,-0.0613 0.151584,0 0.254937,0.0772 0.103353,0.0772 0.144005,0.21704 l -0.131602,0.031 q -0.03514,-0.11024 -0.101975,-0.16054 -0.06683,-0.0503 -0.168121,-0.0503 -0.116444,0 -0.194992,0.0558 -0.07786,0.0558 -0.109554,0.15021 -0.03169,0.0937 -0.03169,0.19361 0,0.12885 0.03721,0.22531 0.0379,0.0958 0.117133,0.14332 0.07924,0.0475 0.171566,0.0475 0.11231,0 0.190169,-0.0648 0.07786,-0.0648 0.10542,-0.19223 z"
         style="stroke-width:0.26458332"
         id="path4644" />
      <path
         d="m 41.725619,269.19464 v -0.8909 h -0.332796 v -0.1192 h 0.80064 v 0.1192 h -0.334174 v 0.8909 z"
         style="stroke-width:0.26458332"
         id="path4646" />
    </g>
  </g>
</svg>
